<svg xmlns="http://www.w3.org/2000/svg" width="34" height="34" viewBox="0 0 34 34">
                                <g id="flower-outline" transform="translate(1 -30.999)">
                                    <path id="Path_45" data-name="Path 45" d="M45.076,40.922a34.049,34.049,0,0,1-.769-5.231A3.669,3.669,0,0,1,48,32h0a3.717,3.717,0,0,1,3.692,3.692,34.716,34.716,0,0,1-.769,5.231M45.076,55.076a33.813,33.813,0,0,0-.769,5.231A3.669,3.669,0,0,0,48,64h0a3.717,3.717,0,0,0,3.692-3.692,34.691,34.691,0,0,0-.769-5.231m4.154-10a33.813,33.813,0,0,1,5.231-.769A3.669,3.669,0,0,1,64,48h0a3.717,3.717,0,0,1-3.692,3.692,34.716,34.716,0,0,1-5.231-.769M40.922,45.075a34.015,34.015,0,0,0-5.231-.769A3.669,3.669,0,0,0,32,48h0a3.717,3.717,0,0,0,3.692,3.692,34.716,34.716,0,0,0,5.231-.769" transform="translate(-31.999)" fill="none" stroke="#000" stroke-linecap="round" stroke-miterlimit="10" stroke-width="2"></path>
                                    <path id="Path_46" data-name="Path 46" d="M99.146,88.176a36.988,36.988,0,0,1,3.477-4.65,4.023,4.023,0,0,1,5.729,0h0a4.081,4.081,0,0,1,0,5.731,37.958,37.958,0,0,1-4.648,3.478m-15.53,6.416a36.982,36.982,0,0,0-4.648,3.478,4.026,4.026,0,0,0,0,5.731h0a4.077,4.077,0,0,0,5.729,0,37.972,37.972,0,0,0,3.477-4.65M103.7,99.151a36.98,36.98,0,0,1,4.648,3.478,4.027,4.027,0,0,1,0,5.731h0a4.077,4.077,0,0,1-5.729,0,37.952,37.952,0,0,1-3.477-4.65M92.732,88.176a37.333,37.333,0,0,0-3.477-4.65,4.023,4.023,0,0,0-5.729,0h0a4.081,4.081,0,0,0,0,5.731,38.241,38.241,0,0,0,4.648,3.478" transform="translate(-79.939 -47.94)" fill="none" stroke="#000" stroke-linecap="round" stroke-miterlimit="10" stroke-width="2"></path>
                                    <circle id="Ellipse_25" data-name="Ellipse 25" cx="3.038" cy="3.038" r="3.038" transform="translate(12.962 44.96)" fill="none" stroke="#000" stroke-linecap="round" stroke-miterlimit="10" stroke-width="2"></circle>
                                </g>
                            </svg>